<?xml version="1.0" standalone="no"?>
<!DOCTYPE svg PUBLIC "-//W3C//DTD SVG 20010904//EN"
 "http://www.w3.org/TR/2001/REC-SVG-20010904/DTD/svg10.dtd">
<svg version="1.0" xmlns="http://www.w3.org/2000/svg"
 width="500.000000pt" height="500.000000pt" viewBox="0 0 500.000000 500.000000"
 preserveAspectRatio="xMidYMid meet">

<g transform="translate(0.000000,500.000000) scale(0.100000,-0.100000)"
fill="#000000" stroke="none">
<path d="M2288 3571 c-118 -26 -179 -47 -273 -94 -282 -141 -489 -395 -572
-704 -24 -88 -27 -115 -27 -273 0 -158 3 -185 27 -275 15 -55 49 -145 76 -200
54 -109 136 -229 151 -220 5 3 -13 36 -40 73 -126 173 -200 403 -200 621 0
485 310 890 795 1037 84 26 102 28 275 28 173 0 191 -2 275 -28 106 -32 209
-77 282 -123 29 -18 55 -28 58 -23 7 11 -34 39 -125 85 -161 81 -261 105 -460
110 -127 4 -171 1 -242 -14z"/>
<path d="M2513 2424 c-456 -514 -829 -940 -831 -945 -2 -5 1 -9 6 -9 9 0 1672
1874 1672 1885 0 3 -4 5 -10 5 -5 0 -382 -421 -837 -936z"/>
<path d="M2040 3161 c50 -7 70 -17 70 -33 0 -15 -205 -539 -229 -586 -23 -45
-50 -70 -87 -82 -20 -5 14 -8 101 -8 99 0 121 2 92 9 -67 16 -77 25 -76 72 0
23 10 69 23 102 l23 60 173 0 172 0 24 -64 c14 -36 26 -67 28 -69 4 -4 102 98
123 128 11 16 1 49 -75 249 l-87 231 -160 -1 c-93 -1 -141 -4 -115 -8z m179
-249 c39 -101 71 -188 71 -194 0 -7 -39 -9 -114 -6 -193 7 -202 30 -110 266
47 118 59 141 69 130 7 -7 45 -96 84 -196z"/>
<path d="M3409 3086 c-3 -3 19 -54 48 -113 30 -60 65 -153 80 -208 24 -89 27
-118 27 -265 0 -147 -3 -176 -27 -264 -103 -384 -390 -671 -772 -773 -89 -24
-118 -27 -265 -27 -147 0 -176 3 -264 27 -55 15 -128 40 -163 56 -62 29 -101
26 -45 -3 109 -56 255 -93 409 -102 522 -32 984 303 1120 814 24 87 26 115 26
272 0 157 -2 185 -26 273 -34 126 -130 330 -148 313z"/>
<path d="M2875 2501 c-3 -5 4 -13 16 -16 33 -11 59 -64 59 -123 0 -109 -43
-143 -192 -150 -93 -4 -98 -4 -105 17 -8 19 -17 11 -96 -77 l-87 -97 0 -111
c0 -123 -7 -138 -65 -147 -16 -2 104 -5 267 -6 180 0 317 3 347 10 126 27 192
132 161 259 -16 66 -54 108 -118 129 l-52 18 40 18 c55 25 80 68 80 138 0 97
-63 147 -184 147 -36 0 -67 -4 -71 -9z m45 -327 c54 -31 82 -90 82 -174 0 -86
-26 -137 -86 -171 -35 -20 -58 -24 -153 -27 l-113 -4 0 202 0 202 118 -3 c96
-3 123 -8 152 -25z"/>
</g>
</svg>
